<svg
  xmlns="http://www.w3.org/2000/svg"
  xmlns:xlink="http://www.w3.org/1999/xlink"
  viewBox="0 0 512 512"
  role="img"
  aria-labelledby="title desc"
>
  <title id="title">SolClear AI Logo</title>
  <desc id="desc">Circular badge logo with solar panel, magnifying glass, and AI neural motif.</desc>
  <defs>
    <linearGradient id="bgGradient" x1="0" x2="1" y1="0" y2="1">
      <stop offset="0%" stop-color="#12354a" />
      <stop offset="100%" stop-color="#0a2233" />
    </linearGradient>
    <linearGradient id="panelGradient" x1="0" x2="1" y1="0" y2="1">
      <stop offset="0%" stop-color="#5ec5e9" />
      <stop offset="100%" stop-color="#2b8eb9" />
    </linearGradient>
    <linearGradient id="glassGradient" x1="0" x2="0" y1="0" y2="1">
      <stop offset="0%" stop-color="#a2d7f7" />
      <stop offset="100%" stop-color="#66a9d0" />
    </linearGradient>
  </defs>
  <g fill="none" fill-rule="evenodd">
    <circle cx="256" cy="256" r="248" fill="url(#bgGradient)" />
    <circle cx="256" cy="256" r="210" fill="#0e3246" />
    <g transform="translate(98 124)">
      <rect x="0" y="92" width="210" height="142" rx="12" fill="url(#panelGradient)" stroke="#0f3b52" stroke-width="10" />
      <path fill="#c9f0ff" opacity=".5" d="M10 102h190v24H10zM10 150h190v24H10zM10 198h190v24H10z" />
      <path stroke="#e5f6ff" stroke-width="10" d="M50 96v130M100 96v130M150 96v130" opacity=".45" />
      <g transform="translate(180 200)">
        <circle cx="76" cy="76" r="76" fill="#0f3042" />
        <circle cx="76" cy="76" r="62" fill="url(#glassGradient)" stroke="#e4f3ff" stroke-width="10" />
        <path d="M118 118l58 58" stroke="#1b526c" stroke-width="22" stroke-linecap="round" />
      </g>
      <g transform="translate(210 -32)">
        <path d="M74 0c37 0 70 33 70 70 0 30-16 56-46 66-10 28-29 48-57 61-28-13-47-33-57-61-30-10-46-36-46-66C-62 33-29 0 8 0h66z" fill="#24b394" stroke="#0f6a54" stroke-width="10" />
        <path d="M9 75h30M39 45h30M39 105h30M69 75h30" stroke="#e5f9f2" stroke-width="10" stroke-linecap="round" />
        <circle cx="39" cy="45" r="10" fill="#e5f9f2" />
        <circle cx="69" cy="75" r="10" fill="#e5f9f2" />
        <circle cx="39" cy="105" r="10" fill="#e5f9f2" />
      </g>
    </g>
    <circle cx="256" cy="256" r="248" stroke="#0e3246" stroke-width="16" />
    <g fill="#ffffff" font-family="'Inter', 'Segoe UI', sans-serif" font-size="34" font-weight="600" letter-spacing="2">
      <text text-anchor="middle">
        <textPath startOffset="50%" xlink:href="#topArc">SolClear AI</textPath>
      </text>
      <text text-anchor="middle">
        <textPath startOffset="50%" xlink:href="#bottomArc">SOLAR PANELS INTELLIGENT DUST DETECTION SYSTEM</textPath>
      </text>
    </g>
  </g>
  <defs>
    <path id="topArc" d="M46 256A210 210 0 0 0 466 256" />
    <path id="bottomArc" d="M46 256A210 210 0 0 1 466 256" />
  </defs>
</svg>
